<svg width="66" height="101" viewBox="0 0 66 101" fill="none" xmlns="http://www.w3.org/2000/svg">
<path fill-rule="evenodd" clip-rule="evenodd" d="M36.0854 0.672974C28.7402 3.27933 21.8689 10.8615 14.9976 23.1824C4.80907 41.9009 -8.22271 68.4383 9.78485 89.5262C18.0778 99.2408 32.0574 104.927 50.0649 95.9236C64.5184 88.5784 68.7833 67.4906 63.3336 57.7759C52.4343 37.3989 41.535 32.4232 38.6917 19.8653C36.7962 11.3354 35.8484 4.93793 36.0854 0.672974Z" fill="url(#paint0_linear_307_1096)"/>
<path fill-rule="evenodd" clip-rule="evenodd" d="M36.0854 0.436035C28.7402 3.0424 21.6319 10.6245 14.9976 22.9455C4.80907 41.6639 -8.22271 68.2014 9.78485 89.2892C18.0778 99.0038 31.8204 102.084 39.4025 96.3975C44.3783 92.6064 47.6955 89.0523 49.591 81.4701C51.7235 72.9402 50.0649 61.804 48.8802 56.3543C47.4586 49.7199 46.9847 42.6117 47.4586 34.5557C47.4586 34.5557 47.2216 34.5557 47.2216 34.3187C43.1936 29.5799 40.3503 25.3149 38.9287 19.3914C36.7962 11.0984 35.8484 4.70099 36.0854 0.436035Z" fill="url(#paint1_linear_307_1096)"/>
<path fill-rule="evenodd" clip-rule="evenodd" d="M29.9249 3.75317C23.0536 9.20284 18.0778 18.2066 14.7606 30.7645C9.78485 49.7199 9.31097 67.2536 10.9696 77.679C14.2867 97.5821 32.0574 104.927 50.0649 95.6866C61.2012 90 65.94 77.916 65.7031 64.6472C65.4661 50.9046 38.9287 35.5034 34.4268 24.1302C31.3465 16.3111 29.9249 9.67672 29.9249 3.75317Z" fill="url(#paint2_linear_307_1096)"/>
<path fill-rule="evenodd" clip-rule="evenodd" d="M47.2217 39.2945C55.5146 49.72 57.1732 57.0652 52.6713 61.0932C45.8 67.2537 28.7402 71.2817 18.3148 63.9365C11.2066 58.9607 8.6002 48.2983 10.2588 31.9493C7.41549 38.1098 4.80913 44.0334 2.9136 50.4308C1.01807 56.5913 0.307246 63.2257 1.25501 69.86C3.86137 74.8358 9.78491 78.3899 19.4995 80.0485C33.9529 82.6549 47.6956 81.2332 56.9363 76.7313C63.0968 73.6511 65.9401 70.5709 65.7031 67.4906C65.9401 62.9887 64.5184 58.7238 61.4382 54.4588C58.5949 50.1939 53.856 45.2181 47.2217 39.2945Z" fill="url(#paint3_linear_307_1096)"/>
<path fill-rule="evenodd" clip-rule="evenodd" d="M15.2346 28.869C15.2346 36.4512 17.1301 43.5594 21.1581 50.4307C27.0816 60.6192 33.9529 70.8077 44.3784 79.1007C51.2497 84.7873 56.9363 86.4459 60.9643 84.5503C57.6471 90.7108 53.856 93.5541 50.065 93.5541C44.3784 93.3172 37.2701 90.9478 26.1339 77.4421C18.5517 68.4383 13.576 59.9084 10.7327 51.8524C11.2065 48.7721 11.6804 45.4549 12.1543 42.3747C12.8651 39.2945 13.8129 34.7926 15.2346 28.869Z" fill="url(#paint4_linear_307_1096)"/>
<path fill-rule="evenodd" clip-rule="evenodd" d="M33.0052 39.2945C33.716 45.4549 36.0854 55.4065 33.0052 61.8039C29.9249 68.4383 15.9454 80.2854 19.7364 90.7108C23.5275 101.136 33.0052 98.7668 38.9287 94.028C44.8522 89.2892 47.9325 81.4701 48.6433 75.7835C49.3541 70.3338 46.9847 59.6715 46.2739 50.4307C45.8 44.2702 46.0369 39.0575 47.2217 34.5556L45.3261 32.1862L34.6638 29.106C33.2421 31.7123 32.5313 35.0295 33.0052 39.2945Z" fill="url(#paint5_linear_307_1096)"/>
<path fill-rule="evenodd" clip-rule="evenodd" d="M36.7962 8.729C33.242 10.1507 30.1618 12.994 27.0816 17.4959C22.3427 23.8933 19.9733 27.9213 21.8688 40.7161C23.0535 49.2461 23.7644 57.0651 24.4752 64.4103L39.4025 21.05C38.9286 18.9175 38.4547 16.785 37.9809 15.1264C37.27 12.994 37.0331 11.0984 36.7962 8.729Z" fill="url(#paint6_linear_307_1096)"/>
<path fill-rule="evenodd" clip-rule="evenodd" d="M39.1656 20.813C35.3745 22.9455 32.5312 27.6843 30.3988 34.3187C28.2663 41.19 26.3707 50.6677 24.7122 62.9886C27.0816 55.1695 28.5032 49.4829 29.214 45.9288C30.3988 40.7161 30.6357 33.134 33.7159 28.1582C35.6115 24.841 37.507 22.4716 39.1656 20.813Z" fill="#330A4C" fill-opacity="0.3163"/>
<path fill-rule="evenodd" clip-rule="evenodd" d="M21.395 94.265C27.5555 95.2128 30.8727 95.9236 31.1096 96.6344C31.5835 97.5822 30.3988 98.53 26.8447 98.0561C24.7122 97.5822 22.8167 96.3975 21.395 94.265Z" fill="white"/>
<path fill-rule="evenodd" clip-rule="evenodd" d="M24.7122 8.729C21.395 12.757 18.3148 17.2589 15.7085 21.7608C13.1021 26.2627 11.4435 29.8168 10.2588 31.9493C10.0219 33.6079 9.78491 36.2143 9.78491 39.5314C9.78491 42.8486 10.0219 46.4028 10.7327 50.4308C11.2066 42.6117 12.6282 34.7926 15.2346 27.4474C17.604 20.1022 20.9212 13.7048 24.7122 8.729Z" fill="#EDEDED" fill-opacity="0.6033"/>
<defs>
<linearGradient id="paint0_linear_307_1096" x1="34.1381" y1="7.98997" x2="30.6591" y2="100.541" gradientUnits="userSpaceOnUse">
<stop stop-color="#D9D8DC"/>
<stop offset="1" stop-color="white" stop-opacity="0.3853"/>
</linearGradient>
<linearGradient id="paint1_linear_307_1096" x1="32.8725" y1="6.45027" x2="-3.47306" y2="86.1085" gradientUnits="userSpaceOnUse">
<stop stop-color="#8D67AF" stop-opacity="0.6719"/>
<stop offset="1" stop-color="#9F8DAF"/>
</linearGradient>
<linearGradient id="paint2_linear_307_1096" x1="37.9841" y1="33.8017" x2="37.9841" y2="97.8775" gradientUnits="userSpaceOnUse">
<stop stop-color="#26053D" stop-opacity="0.7616"/>
<stop offset="1" stop-color="#B7B4B4" stop-opacity="0.2777"/>
</linearGradient>
<linearGradient id="paint3_linear_307_1096" x1="14.0681" y1="35.6368" x2="30.3804" y2="78.845" gradientUnits="userSpaceOnUse">
<stop stop-color="#91739F" stop-opacity="0.4595"/>
<stop offset="1" stop-color="#32054F" stop-opacity="0.5399"/>
</linearGradient>
<linearGradient id="paint4_linear_307_1096" x1="50.9376" y1="91.3423" x2="6.08654" y2="54.1943" gradientUnits="userSpaceOnUse">
<stop stop-color="#463D49" stop-opacity="0.3312"/>
<stop offset="1" stop-color="#340A50" stop-opacity="0.8214"/>
</linearGradient>
<linearGradient id="paint5_linear_307_1096" x1="39.8383" y1="33.0836" x2="8.20697" y2="81.2129" gradientUnits="userSpaceOnUse">
<stop stop-color="#715383" stop-opacity="0.1452"/>
<stop offset="1" stop-color="#F4F4F4" stop-opacity="0.2336"/>
</linearGradient>
<linearGradient id="paint6_linear_307_1096" x1="45.0903" y1="44.9819" x2="22.69" y2="43.6146" gradientUnits="userSpaceOnUse">
<stop stop-color="#A5A1A8" stop-opacity="0.3561"/>
<stop offset="1" stop-color="#370C50" stop-opacity="0.582"/>
</linearGradient>
</defs>
</svg>
